<svg xmlns="http://www.w3.org/2000/svg" width="61" height="60" viewBox="0 0 61 60" fill="none">
<g clip-path="url(#clip0_252_840)">
<path fill-rule="evenodd" clip-rule="evenodd" d="M43.2781 14.046C47.3281 14.046 51.6211 16.275 54.6781 20.13C44.6581 25.683 46.2871 40.152 56.4121 44.019C55.0171 47.139 54.3511 48.534 52.5571 51.297C50.0521 55.149 46.5271 59.949 42.1501 59.991C38.2651 60.027 37.2661 57.432 31.9921 57.462C26.7181 57.492 25.6171 60.036 21.7321 60C17.3581 59.958 14.0131 55.626 11.5081 51.771C4.50614 40.995 3.77414 28.35 8.09414 21.63C11.1631 16.848 16.0021 14.049 20.5561 14.049C25.1911 14.049 28.1041 16.62 31.9381 16.62C35.6581 16.62 37.9201 14.046 43.2781 14.046ZM42.1021 0C42.6421 3.645 41.1601 7.215 39.2131 9.741C37.1281 12.447 33.5371 14.544 30.0631 14.436C29.4331 10.947 31.0591 7.356 33.0331 4.935C35.2021 2.265 38.9221 0.222 42.1021 0Z" fill="black"/>
</g>
<defs>
<clipPath id="clip0_252_840">
<rect width="60" height="60" fill="white" transform="translate(0.912109)"/>
</clipPath>
</defs>
</svg>