<svg xmlns="http://www.w3.org/2000/svg" width="25" height="24" viewBox="0 0 25 24" fill="none">
<g clip-path="url(#clip0_252_922)">
<path d="M22.0264 3H2.02637C0.936367 3.04 0.0663672 3.91 0.0263672 5V19C0.0663672 20.09 0.936367 20.96 2.02637 21H22.0264C23.1164 20.96 23.9864 20.09 24.0264 19V5C24.008 4.47543 23.7913 3.97734 23.4202 3.60619C23.049 3.23503 22.5509 3.01841 22.0264 3ZM22.0264 19H2.02637V5H22.0264V19ZM14.0264 17V15.75C14.0264 14.09 10.6864 13.25 9.02637 13.25C7.36637 13.25 4.02637 14.09 4.02637 15.75V17H14.0264ZM9.02637 7C8.36333 7 7.72744 7.26339 7.2586 7.73223C6.78976 8.20107 6.52637 8.83696 6.52637 9.5C6.52637 9.8283 6.59103 10.1534 6.71667 10.4567C6.8423 10.76 7.02645 11.0356 7.2586 11.2678C7.72744 11.7366 8.36333 12 9.02637 12C9.35467 12 9.67976 11.9353 9.98308 11.8097C10.2864 11.6841 10.562 11.4999 10.7941 11.2678C11.0263 11.0356 11.2104 10.76 11.3361 10.4567C11.4617 10.1534 11.5264 9.8283 11.5264 9.5C11.5264 9.1717 11.4617 8.84661 11.3361 8.54329C11.2104 8.23998 11.0263 7.96438 10.7941 7.73223C10.562 7.50009 10.2864 7.31594 9.98308 7.1903C9.67976 7.06466 9.35467 7 9.02637 7ZM14.0264 7V8H20.0264V7H14.0264ZM14.0264 9V10H20.0264V9H14.0264ZM14.0264 11V12H18.0264V11H14.0264Z" fill="black" fill-opacity="0.54"/>
</g>
<defs>
<clipPath id="clip0_252_922">
<rect width="24" height="24" fill="white" transform="translate(0.0263672)"/>
</clipPath>
</defs>
</svg>