<svg xmlns="http://www.w3.org/2000/svg" width="25" height="24" viewBox="0 0 25 24" fill="none">
<path d="M19.0264 4H17.0264V3C17.0264 2.73478 16.921 2.48043 16.7335 2.29289C16.5459 2.10536 16.2916 2 16.0264 2C15.7612 2 15.5068 2.10536 15.3193 2.29289C15.1317 2.48043 15.0264 2.73478 15.0264 3V4H9.02637V3C9.02637 2.73478 8.92101 2.48043 8.73347 2.29289C8.54594 2.10536 8.29158 2 8.02637 2C7.76115 2 7.5068 2.10536 7.31926 2.29289C7.13172 2.48043 7.02637 2.73478 7.02637 3V4H5.02637C4.23072 4 3.46766 4.31607 2.90505 4.87868C2.34244 5.44129 2.02637 6.20435 2.02637 7V19C2.02637 19.7956 2.34244 20.5587 2.90505 21.1213C3.46766 21.6839 4.23072 22 5.02637 22H19.0264C19.822 22 20.5851 21.6839 21.1477 21.1213C21.7103 20.5587 22.0264 19.7956 22.0264 19V7C22.0264 6.20435 21.7103 5.44129 21.1477 4.87868C20.5851 4.31607 19.822 4 19.0264 4ZM20.0264 19C20.0264 19.2652 19.921 19.5196 19.7335 19.7071C19.5459 19.8946 19.2916 20 19.0264 20H5.02637C4.76115 20 4.5068 19.8946 4.31926 19.7071C4.13172 19.5196 4.02637 19.2652 4.02637 19V12H20.0264V19ZM20.0264 10H4.02637V7C4.02637 6.73478 4.13172 6.48043 4.31926 6.29289C4.5068 6.10536 4.76115 6 5.02637 6H7.02637V7C7.02637 7.26522 7.13172 7.51957 7.31926 7.70711C7.5068 7.89464 7.76115 8 8.02637 8C8.29158 8 8.54594 7.89464 8.73347 7.70711C8.92101 7.51957 9.02637 7.26522 9.02637 7V6H15.0264V7C15.0264 7.26522 15.1317 7.51957 15.3193 7.70711C15.5068 7.89464 15.7612 8 16.0264 8C16.2916 8 16.5459 7.89464 16.7335 7.70711C16.921 7.51957 17.0264 7.26522 17.0264 7V6H19.0264C19.2916 6 19.5459 6.10536 19.7335 6.29289C19.921 6.48043 20.0264 6.73478 20.0264 7V10Z" fill="black" fill-opacity="0.59"/>
</svg>