<svg xmlns="http://www.w3.org/2000/svg" width="61" height="60" viewBox="0 0 61 60" fill="none">
<g clip-path="url(#clip0_252_837)">
<path d="M60.9121 30C60.9121 13.4316 47.4805 0 30.9121 0C14.3437 0 0.912109 13.4316 0.912109 30C0.912109 44.9738 11.8827 57.3851 26.2246 59.6356V38.6719H18.6074V30H26.2246V23.3906C26.2246 15.8719 30.7035 11.7188 37.5562 11.7188C40.8384 11.7188 44.2715 12.3047 44.2715 12.3047V19.6875H40.4887C36.7619 19.6875 35.5996 22.0001 35.5996 24.3727V30H43.9199L42.5898 38.6719H35.5996V59.6356C49.9415 57.3851 60.9121 44.974 60.9121 30Z" fill="#1877F2"/>
<path d="M42.5898 38.6719L43.9199 30H35.5996V24.3727C35.5996 21.9998 36.7619 19.6875 40.4887 19.6875H44.2715V12.3047C44.2715 12.3047 40.8384 11.7188 37.5559 11.7188C30.7035 11.7188 26.2246 15.8719 26.2246 23.3906V30H18.6074V38.6719H26.2246V59.6355C27.7753 59.8786 29.3425 60.0004 30.9121 60C32.4817 60.0005 34.0489 59.8786 35.5996 59.6355V38.6719H42.5898Z" fill="white"/>
</g>
<defs>
<clipPath id="clip0_252_837">
<rect width="60" height="60" fill="white" transform="translate(0.912109)"/>
</clipPath>
</defs>
</svg>