<svg xmlns="http://www.w3.org/2000/svg" width="69" height="68" viewBox="0 0 69 68" fill="none">
<g filter="url(#filter0_d_252_829)">
<circle cx="34.9121" cy="30" r="30" fill="white"/>
<circle cx="34.9121" cy="30" r="29.5" stroke="black" stroke-opacity="0.26"/>
<g clip-path="url(#clip0_252_829)">
<path d="M28.2948 9.61706C23.9349 11.1296 20.1748 14.0004 17.567 17.8078C14.9593 21.6151 13.6411 26.1585 13.8063 30.7704C13.9715 35.3822 15.6112 39.8196 18.4847 43.4307C21.3582 47.0418 25.314 49.6362 29.7709 50.833C33.3843 51.7653 37.1701 51.8063 40.8028 50.9523C44.0936 50.2131 47.1361 48.6319 49.6323 46.3637C52.2303 43.9307 54.1161 40.8357 55.0868 37.4114C56.1417 33.6875 56.3294 29.7714 55.6357 25.9637H35.3448V34.3807H47.0959C46.8611 35.7232 46.3578 37.0044 45.6162 38.1479C44.8746 39.2913 43.91 40.2733 42.78 41.0352C41.3453 41.9848 39.7276 42.6235 38.0312 42.9102C36.3298 43.2267 34.5848 43.2267 32.8834 42.9102C31.159 42.5541 29.5277 41.8424 28.0937 40.8205C25.7896 39.1895 24.0596 36.8725 23.1505 34.2C22.2262 31.4775 22.2262 28.526 23.1505 25.8034C23.7976 23.8951 24.8674 22.1575 26.28 20.7205C27.8966 19.0457 29.9432 17.8486 32.1953 17.2605C34.4475 16.6724 36.8181 16.7159 39.0471 17.3864C40.7884 17.9207 42.3808 18.8546 43.6971 20.1137C45.0221 18.7955 46.3448 17.4739 47.6653 16.1489C48.3471 15.4364 49.0903 14.758 49.7618 14.0284C47.7523 12.1586 45.3936 10.7036 42.8209 9.74661C38.1358 8.04544 33.0095 7.99972 28.2948 9.61706Z" fill="white"/>
<path d="M28.2949 9.61676C33.0092 7.99832 38.1355 8.04284 42.821 9.7429C45.3941 10.7063 47.7517 12.1684 49.7585 14.0452C49.0767 14.7747 48.3573 15.4565 47.6619 16.1656C46.3392 17.4861 45.0176 18.802 43.6971 20.1134C42.3808 18.8543 40.7885 17.9204 39.0471 17.3861C36.8189 16.7133 34.4483 16.6672 32.1956 17.2529C29.9429 17.8387 27.895 19.0336 26.2767 20.7065C24.8641 22.1436 23.7943 23.8811 23.1471 25.7895L16.0801 20.3179C18.6097 15.3016 22.9894 11.4646 28.2949 9.61676Z" fill="#E33629"/>
<path d="M14.2052 25.7383C14.5848 23.8557 15.2154 22.0326 16.0802 20.3179L23.1472 25.8031C22.223 28.5257 22.223 31.4771 23.1472 34.1997C20.7927 36.0179 18.437 37.8451 16.0802 39.6815C13.9159 35.3735 13.2559 30.465 14.2052 25.7383Z" fill="#F8BD00"/>
<path d="M35.3448 25.96H55.6357C56.3294 29.7677 56.1416 33.6838 55.0868 37.4077C54.116 40.832 52.2303 43.9271 49.6323 46.36C47.3516 44.5804 45.0607 42.8145 42.78 41.035C43.9107 40.2723 44.8758 39.2891 45.6174 38.1445C46.359 36.9999 46.8619 35.7173 47.0959 34.3736H35.3448C35.3414 31.5713 35.3448 28.7656 35.3448 25.96Z" fill="#587DBD"/>
<path d="M16.0767 39.6815C18.4335 37.8633 20.7892 36.0361 23.1437 34.1997C24.0546 36.8731 25.7871 39.1903 28.0937 40.8202C29.5322 41.8373 31.167 42.5433 32.8937 42.8929C34.595 43.2093 36.3401 43.2093 38.0414 42.8929C39.7379 42.6061 41.3555 41.9674 42.7903 41.0179C45.071 42.7974 47.3619 44.5633 49.6426 46.3429C47.1467 48.6124 44.1042 50.1948 40.813 50.9349C37.1803 51.7889 33.3946 51.748 29.7812 50.8156C26.9234 50.0526 24.254 48.7074 21.9403 46.8645C19.4916 44.92 17.4916 42.4699 16.0767 39.6815Z" fill="#319F43"/>
</g>
</g>
<defs>
<filter id="filter0_d_252_829" x="0.912109" y="0" width="68" height="68" filterUnits="userSpaceOnUse" color-interpolation-filters="sRGB">
<feFlood flood-opacity="0" result="BackgroundImageFix"/>
<feColorMatrix in="SourceAlpha" type="matrix" values="0 0 0 0 0 0 0 0 0 0 0 0 0 0 0 0 0 0 127 0" result="hardAlpha"/>
<feOffset dy="4"/>
<feGaussianBlur stdDeviation="2"/>
<feComposite in2="hardAlpha" operator="out"/>
<feColorMatrix type="matrix" values="0 0 0 0 0 0 0 0 0 0 0 0 0 0 0 0 0 0 0.25 0"/>
<feBlend mode="normal" in2="BackgroundImageFix" result="effect1_dropShadow_252_829"/>
<feBlend mode="normal" in="SourceGraphic" in2="effect1_dropShadow_252_829" result="shape"/>
</filter>
<clipPath id="clip0_252_829">
<rect width="43.6364" height="43.6364" fill="white" transform="translate(13.0938 8.18164)"/>
</clipPath>
</defs>
</svg>