<svg xmlns="http://www.w3.org/2000/svg" width="25" height="17" viewBox="0 0 25 17" fill="none">
<path d="M17.3961 8.53362L23.5471 3.18962V13.8166L17.3961 8.53362ZM9.47011 9.43862L11.6301 11.3136C11.9691 11.6016 12.4111 11.7756 12.8941 11.7756H12.9111H12.9241C13.4081 11.7756 13.8501 11.6006 14.1931 11.3106L14.1901 11.3126L16.3501 9.43762L22.9161 15.0766H2.90711L9.47011 9.43862ZM2.89811 1.92262H22.9281L13.3071 10.2786C13.1989 10.3642 13.065 10.4107 12.9271 10.4106H12.9131H12.9001C12.7617 10.4108 12.6273 10.3639 12.5191 10.2776L12.5201 10.2786L2.89811 1.92262ZM2.27711 3.18862L8.42711 8.53262L2.27711 13.8126V3.18862ZM23.8771 0.747617C23.6371 0.627617 23.3551 0.557617 23.0561 0.557617H2.77111C2.48127 0.557686 2.19541 0.625128 1.93611 0.754617L1.94711 0.749617C1.63668 0.902728 1.37526 1.1396 1.19236 1.43346C1.00947 1.72733 0.912397 2.06648 0.912109 2.41262V14.5846C0.912639 15.0772 1.10856 15.5495 1.45689 15.8978C1.80522 16.2462 2.2775 16.4421 2.77011 16.4426H23.0531C23.5457 16.4421 24.018 16.2462 24.3663 15.8978C24.7147 15.5495 24.9106 15.0772 24.9111 14.5846V2.41262C24.9111 1.68562 24.4921 1.05562 23.8821 0.752617L23.8711 0.747617H23.8771Z" fill="black" fill-opacity="0.8"/>
</svg>