<svg xmlns="http://www.w3.org/2000/svg" width="25" height="25" viewBox="0 0 25 25" fill="none">
<path d="M18.9121 8.5H17.9121V6.5C17.9121 3.74 15.6721 1.5 12.9121 1.5C10.1521 1.5 7.91211 3.74 7.91211 6.5V8.5H6.91211C5.81211 8.5 4.91211 9.4 4.91211 10.5V20.5C4.91211 21.6 5.81211 22.5 6.91211 22.5H18.9121C20.0121 22.5 20.9121 21.6 20.9121 20.5V10.5C20.9121 9.4 20.0121 8.5 18.9121 8.5ZM9.91211 6.5C9.91211 4.84 11.2521 3.5 12.9121 3.5C14.5721 3.5 15.9121 4.84 15.9121 6.5V8.5H9.91211V6.5ZM18.9121 20.5H6.91211V10.5H18.9121V20.5ZM12.9121 17.5C14.0121 17.5 14.9121 16.6 14.9121 15.5C14.9121 14.4 14.0121 13.5 12.9121 13.5C11.8121 13.5 10.9121 14.4 10.9121 15.5C10.9121 16.6 11.8121 17.5 12.9121 17.5Z" fill="black"/>
</svg>