<svg xmlns="http://www.w3.org/2000/svg" width="25" height="24" viewBox="0 0 25 24" fill="none">
<path d="M3.85938 4H8.34938L9.79638 7.618L7.47138 9.168C7.33446 9.25935 7.22221 9.38308 7.14458 9.52822C7.06696 9.67335 7.02635 9.83541 7.02638 10C7.02938 10.094 7.02638 10.001 7.02638 10.001V10.022C7.02697 10.0667 7.02897 10.1114 7.03238 10.156C7.03838 10.238 7.04838 10.349 7.06738 10.486C7.10638 10.756 7.18138 11.128 7.32738 11.566C7.62138 12.446 8.19738 13.585 9.31938 14.707C10.4414 15.829 11.5804 16.405 12.4594 16.699C12.8984 16.845 13.2694 16.919 13.5414 16.959C13.6949 16.9804 13.8495 16.9938 14.0044 16.999L14.0174 17H14.0254C14.0254 17 14.1374 16.994 14.0264 17C14.212 16.9999 14.394 16.9481 14.5519 16.8504C14.7098 16.7528 14.8374 16.6131 14.9204 16.447L15.5904 15.107L20.0264 15.847V20.167C17.9154 20.472 12.2134 20.773 7.73338 16.293C3.25338 11.813 3.55338 6.11 3.85938 4ZM9.09938 10.486L10.9064 9.282C11.2881 9.02737 11.5707 8.64922 11.7067 8.21096C11.8427 7.77271 11.8239 7.30102 11.6534 6.875L10.2064 3.257C10.0579 2.88591 9.80162 2.56781 9.47062 2.34376C9.13962 2.11971 8.74908 1.99997 8.34938 2H3.80738C2.89838 2 2.04338 2.631 1.89438 3.617C1.55438 5.859 1.09338 12.481 6.31938 17.707C11.5454 22.933 18.1674 22.471 20.4094 22.132C21.3954 21.982 22.0264 21.128 22.0264 20.219V15.847C22.0264 15.3736 21.8585 14.9155 21.5526 14.5542C21.2466 14.1929 20.8224 13.9519 20.3554 13.874L15.9194 13.135C15.4975 13.0646 15.0641 13.1313 14.6829 13.3253C14.3017 13.5193 13.9927 13.8304 13.8014 14.213L13.4554 14.906C13.333 14.8759 13.2119 14.8408 13.0924 14.801C12.4724 14.595 11.6114 14.171 10.7334 13.293C9.85538 12.415 9.43138 11.554 9.22538 10.933C9.17619 10.7862 9.13447 10.637 9.10038 10.486H9.09938Z" fill="black" fill-opacity="0.61"/>
</svg>