<svg xmlns="http://www.w3.org/2000/svg" width="25" height="24" viewBox="0 0 25 24" fill="none">
<path fill-rule="evenodd" clip-rule="evenodd" d="M16.2984 10.272C16.2984 11.3328 15.8769 12.3503 15.1268 13.1004C14.3767 13.8505 13.3592 14.272 12.2984 14.272C11.2375 14.272 10.2201 13.8505 9.46994 13.1004C8.7198 12.3503 8.29837 11.3328 8.29837 10.272C8.29837 9.21111 8.7198 8.19369 9.46994 7.44355C10.2201 6.6934 11.2375 6.27197 12.2984 6.27197C13.3592 6.27197 14.3767 6.6934 15.1268 7.44355C15.8769 8.19369 16.2984 9.21111 16.2984 10.272ZM14.2984 10.272C14.2984 10.8024 14.0877 11.3111 13.7126 11.6862C13.3375 12.0613 12.8288 12.272 12.2984 12.272C11.7679 12.272 11.2592 12.0613 10.8842 11.6862C10.5091 11.3111 10.2984 10.8024 10.2984 10.272C10.2984 9.74154 10.5091 9.23283 10.8842 8.85776C11.2592 8.48269 11.7679 8.27197 12.2984 8.27197C12.8288 8.27197 13.3375 8.48269 13.7126 8.85776C14.0877 9.23283 14.2984 9.74154 14.2984 10.272Z" fill="black" fill-opacity="0.56"/>
<path fill-rule="evenodd" clip-rule="evenodd" d="M5.82037 16.5181C4.53121 15.2907 3.63498 13.7085 3.24501 11.9717C2.85504 10.2349 2.98885 8.42149 3.62951 6.76074C4.27018 5.1 5.38893 3.66652 6.84429 2.6416C8.29965 1.61668 10.0262 1.04634 11.8058 1.00271C13.5853 0.959071 15.3377 1.4441 16.8416 2.39646C18.3454 3.34882 19.5331 4.72574 20.2544 6.35309C20.9757 7.98044 21.1982 9.78514 20.8938 11.539C20.5894 13.2928 19.7718 14.917 18.5444 16.2061L12.3384 22.7241L5.82037 16.5181ZM17.0964 14.8271L12.2694 19.8971L7.19937 15.0701C6.19674 14.1154 5.49971 12.8849 5.19642 11.5341C4.89313 10.1833 4.99721 8.77285 5.49549 7.48119C5.99377 6.18953 6.86387 5.07462 7.99577 4.27746C9.12768 3.4803 10.4705 3.03668 11.8546 3.00269C13.2386 2.96871 14.6016 3.3459 15.7713 4.08655C16.9409 4.8272 17.8647 5.89806 18.4258 7.16371C18.9868 8.42936 19.16 9.83297 18.9234 11.197C18.6867 12.5611 18.0509 13.8244 17.0964 14.8271Z" fill="black" fill-opacity="0.56"/>
</svg>