<svg xmlns="http://www.w3.org/2000/svg" width="21" height="22" viewBox="0 0 21 22" fill="none">
<path d="M19.4692 1.99163C17.0036 -0.472368 12.1844 0.750032 9.42115 3.67163C7.60216 5.57867 6.53385 8.07897 6.41315 10.7116C6.47101 12.2152 6.15779 13.7098 5.50115 15.0636C5.31445 15.0092 5.11658 15.0057 4.92808 15.0535C4.73957 15.1013 4.5673 15.1988 4.42915 15.3356L0.445153 19.3356C0.237628 19.5438 0.121094 19.8257 0.121094 20.1196C0.121094 20.4136 0.237628 20.6955 0.445153 20.9036L0.557153 21.0156C0.767491 21.219 1.0486 21.3326 1.34115 21.3326C1.63371 21.3326 1.91481 21.219 2.12515 21.0156L6.12515 17.0316C6.26177 16.8965 6.36033 16.7277 6.41089 16.5423C6.46146 16.3569 6.46224 16.1614 6.41315 15.9756C8.00487 15.3582 9.69789 15.0435 11.4052 15.0476C13.8149 14.8176 16.0706 13.7604 17.7892 12.0556C21.0372 8.80763 21.7908 4.31163 19.4692 1.99163ZM15.9492 1.92763C16.918 1.89577 17.8606 2.24635 18.5732 2.90363C19.0294 3.43151 19.3426 4.06767 19.4827 4.75122C19.6228 5.43477 19.585 6.14283 19.3732 6.80763L14.6532 2.07163C15.0789 1.97809 15.5133 1.92982 15.9492 1.92763ZM8.63715 12.8236C8.16994 12.2665 7.85389 11.5986 7.71939 10.8841C7.58489 10.1696 7.63647 9.43247 7.86915 8.74363L12.7332 13.6076C12.0372 13.8119 11.3027 13.8473 10.5904 13.7109C9.87803 13.5746 9.20846 13.2704 8.63715 12.8236ZM13.2452 13.4476L8.02915 8.21563C8.22323 7.61142 8.4863 7.0316 8.81315 6.48763L14.9732 12.6476C14.4277 12.9759 13.8483 13.2441 13.2452 13.4476ZM15.3892 12.3916L9.08515 6.07163C9.42466 5.54882 9.82182 5.06579 10.2692 4.63163L16.8292 11.1916C16.3917 11.6401 15.9092 12.0423 15.3892 12.3916ZM17.1652 10.8556L10.6052 4.29563C11.019 3.90695 11.4691 3.5587 11.9492 3.25563L18.2212 9.52763C17.911 10.002 17.5575 10.4466 17.1652 10.8556ZM18.4772 9.11163L12.3812 2.99963C12.9227 2.6615 13.5101 2.40287 14.1252 2.23163L19.2452 7.35163C19.0533 7.96426 18.7958 8.55436 18.4772 9.11163Z" fill="#14E11C"/>
</svg>