<svg xmlns="http://www.w3.org/2000/svg" width="129" height="129" viewBox="0 0 129 129" fill="none">
<g filter="url(#filter0_d_252_882)">
<circle cx="64.5264" cy="60.5137" r="60" fill="#D9D9D9"/>
<circle cx="64.5264" cy="60.5137" r="59.5" stroke="black" stroke-opacity="0.61"/>
</g>
<path d="M37.8597 80.513C37.8597 76.9768 39.2645 73.5854 41.765 71.0849C44.2654 68.5844 47.6568 67.1797 51.193 67.1797H77.8597C81.3959 67.1797 84.7873 68.5844 87.2878 71.0849C89.7883 73.5854 91.193 76.9768 91.193 80.513C91.193 82.2811 90.4907 83.9768 89.2404 85.2271C87.9902 86.4773 86.2945 87.1797 84.5264 87.1797H44.5264C42.7583 87.1797 41.0626 86.4773 39.8123 85.2271C38.5621 83.9768 37.8597 82.2811 37.8597 80.513Z" stroke="black" stroke-width="2" stroke-linejoin="round"/>
<path d="M64.5264 53.8467C70.0492 53.8467 74.5264 49.3695 74.5264 43.8467C74.5264 38.3238 70.0492 33.8467 64.5264 33.8467C59.0035 33.8467 54.5264 38.3238 54.5264 43.8467C54.5264 49.3695 59.0035 53.8467 64.5264 53.8467Z" stroke="black" stroke-width="2"/>
<defs>
<filter id="filter0_d_252_882" x="0.526367" y="0.513672" width="128" height="128" filterUnits="userSpaceOnUse" color-interpolation-filters="sRGB">
<feFlood flood-opacity="0" result="BackgroundImageFix"/>
<feColorMatrix in="SourceAlpha" type="matrix" values="0 0 0 0 0 0 0 0 0 0 0 0 0 0 0 0 0 0 127 0" result="hardAlpha"/>
<feOffset dy="4"/>
<feGaussianBlur stdDeviation="2"/>
<feComposite in2="hardAlpha" operator="out"/>
<feColorMatrix type="matrix" values="0 0 0 0 0 0 0 0 0 0 0 0 0 0 0 0 0 0 0.25 0"/>
<feBlend mode="normal" in2="BackgroundImageFix" result="effect1_dropShadow_252_882"/>
<feBlend mode="normal" in="SourceGraphic" in2="effect1_dropShadow_252_882" result="shape"/>
</filter>
</defs>
</svg>